:version 1.10
:name ASF
:units
  mass 1
  length 1
  angle deg
:documentation
  ASF file generated by Kaydara
:root
  axis xyz
  order  tx ty tz rx ry rz
  position 0 0 0
  orientation 0 0 0
:bonedata
  begin
    id 1
    name RightUpLegDummy
    direction -0.718183 -0.695806 0.00816078
    length 4.904
    axis 0 0 0 xyz
  end
  begin
    id 2
    name RightUpLeg
    direction -0.0736652 -0.994202 0.0783343
    length 17.4976
    axis -2.72909 -3.00389 -4.00133 xyz
    dof rx ry rz
  end
  begin
    id 3
    name RightLeg
    direction -0.0389037 -0.994596 -0.0962598
    length 16.5821
    axis 3.95836 -18.5909 -4.46993 xyz
    dof rx ry rz
  end
  begin
    id 4
    name RightFoot
    direction -0.311643 -0.412678 0.855906
    length 3.77069
    axis -1.99483 -18.8351 -3.27644 xyz
    dof rx ry rz
  end
  begin
    id 5
    name RightToes
    direction -0.317852 0.0389852 0.947339
    length 3.85082
    axis -2.00228 -18.1713 -3.25211 xyz
    dof rx ry rz
  end
  begin
    id 6
    name SpineDummy
    direction 8.3039e-015 1 4.44677e-016
    length 4.6813
    axis 0 0 0 xyz
  end
  begin
    id 7
    name Spine
    direction -0.000262373 0.999988 0.00493267
    length 10.1015
    axis -0.00246081 0.00062579 0.0150362 xyz
    dof rx ry rz
  end
  begin
    id 8
    name Spine1
    direction 0 0 0
    length 0
    axis -0.00349562 0.000650293 0.0196666 xyz
    dof rx ry rz
  end
  begin
    id 9
    name HEadDummy
    direction -0.000343232 0.999999 0.00123745
    length 3.43865
    axis -0.00349562 0.000650293 0.0196666 xyz
  end
  begin
    id 10
    name HEad
    direction -0.0461221 0.980933 0.188796
    length 5.12695
    axis -0.00351404 -7.04812 0.0199272 xyz
    dof rx ry rz
  end
  begin
    id 11
    name LeftShoulder1Dummy
    direction 0.998904 -0.0399089 -0.0244534
    length 3.5433
    axis -0.00349562 0.000650293 0.0196666 xyz
  end
  begin
    id 12
    name LeftShoulder1
    direction 0.99951 1.64443e-005 0.0312999
    length 4.05031
    axis -0.00349562 0.000650293 0.0196666 xyz
    dof rx ry rz
  end
  begin
    id 13
    name LeftArm
    direction 0.984791 0.0515299 0.165927
    length 12.9126
    axis -64.823 -10.7743 5.20463 xyz
    dof rx ry rz
  end
  begin
    id 14
    name LeftForeArm
    direction 0.984968 0.0534808 0.16425
    length 10.8596
    axis -30.0462 -7.70601 1.87451 xyz
    dof rx ry rz
  end
  begin
    id 15
    name LeftHand
    direction 0.975871 0.0289682 0.216418
    length 6.62295
    axis -20.1348 -6.98077 1.86072 xyz
    dof rx ry rz
  end
  begin
    id 16
    name RightShoulderDummy
    direction -0.998877 -0.0405946 -0.0244307
    length 3.5433
    axis -0.00349562 0.000650293 0.0196666 xyz
  end
  begin
    id 17
    name RightShoulder
    direction -0.998933 -0.0249743 -0.0388558
    length 4.05031
    axis -0.0205316 -4.02113 1.41395 xyz
    dof rx ry rz
  end
  begin
    id 18
    name RightArm
    direction -0.997559 0.068664 0.0127103
    length 12.9638
    axis -67.3882 1.84188 -6.15987 xyz
    dof rx ry rz
  end
  begin
    id 19
    name RightForeArm
    direction -0.991508 0.0912848 0.0926241
    length 10.8312
    axis -22.1975 3.41087 -4.28711 xyz
    dof rx ry rz
  end
  begin
    id 20
    name RightHand
    direction -0.989262 0.0600788 0.133232
    length 6.57864
    axis -12.2911 2.17515 -4.39675 xyz
    dof rx ry rz
  end
  begin
    id 21
    name LeftUpLegDummy
    direction 0.718183 -0.695806 0.00816078
    length 4.904
    axis 0 0 0 xyz
  end
  begin
    id 22
    name LeftUpLeg
    direction 0.0831398 -0.99469 0.0606531
    length 17.4976
    axis -1.71016 2.29552 4.63832 xyz
    dof rx ry rz
  end
  begin
    id 23
    name LeftLeg
    direction 0.0498442 -0.991778 -0.117862
    length 16.5821
    axis 5.13757 15.5727 5.13348 xyz
    dof rx ry rz
  end
  begin
    id 24
    name LeftFoot
    direction 0.269026 -0.433896 0.85986
    length 3.77069
    axis -0.576502 15.6961 4.10267 xyz
    dof rx ry rz
  end
  begin
    id 25
    name LeftToes
    direction 0.277311 0.0251143 0.960452
    length 3.85048
    axis -0.576502 15.6961 4.10267 xyz
    dof rx ry rz
  end
:hierarchy
  begin
    root RightUpLegDummy SpineDummy LeftUpLegDummy
    RightUpLegDummy RightUpLeg
    RightUpLeg RightLeg
    RightLeg RightFoot
    RightFoot RightToes
    SpineDummy Spine
    Spine Spine1
    Spine1 HEadDummy LeftShoulder1Dummy RightShoulderDummy
    HEadDummy HEad
    LeftShoulder1Dummy LeftShoulder1
    LeftShoulder1 LeftArm
    LeftArm LeftForeArm
    LeftForeArm LeftHand
    RightShoulderDummy RightShoulder
    RightShoulder RightArm
    RightArm RightForeArm
    RightForeArm RightHand
    LeftUpLegDummy LeftUpLeg
    LeftUpLeg LeftLeg
    LeftLeg LeftFoot
    LeftFoot LeftToes
  end

:SAMPLES-PER-SECOND 30
:FULLY-SPECIFIED
:DEGREES
94
root  -6.95183 38.8883 -3.91447 -1.34402 -7.40181 -4.63866
RightUpLeg  -7.85952 1.34352 9.40179
RightLeg  16.8921 -5.41176 -4.20472
RightFoot  -9.02688 0.0528867 -0.778891
RightToes  1.74624e-010 -3.18055e-015 -2.98177e-016
Spine  2.06931 0.206485 7.4988
Spine1  6.33767 -2.87507 16.2156
HEad  -10.4188 16.7708 -5.20054
LeftShoulder1  -3.88251e-019 9.70628e-020 -3.87848e-018
LeftArm  -24.6133 61.8634 -87.9776
LeftForeArm  -13.9326 -24.629 1.2419
LeftHand  -0.721107 -4.03086 9.49458
RightShoulder  7.05343 10.164 33.9089
RightArm  15.1349 -31.7475 23.7662
RightForeArm  28.4006 17.4273 -6.38273
RightHand  -1.7845 8.54827 -14.8074
LeftUpLeg  -15.4087 1.46491 5.32396
LeftLeg  31.9669 18.4501 21.4657
LeftFoot  -4.05304 0.59033 -7.59445
LeftToes  7.37594e-011 2.64622e-011 -6.25182e-011
95
root  -7.01355 38.935 -3.90381 -0.419145 -7.13536 -4.54774
RightUpLeg  -8.16979 1.2999 9.27224
RightLeg  15.6127 -5.66768 -3.48652
RightFoot  -8.54055 0.0612818 -0.945345
RightToes  1.74624e-010 -3.18055e-015 -2.98177e-016
Spine  1.84989 0.269534 7.41209
Spine1  4.79245 -2.87891 16.9604
HEad  -8.86015 16.3049 -5.05564
LeftShoulder1  -3.88251e-019 9.70628e-020 -3.87848e-018
LeftArm  -22.7812 60.1803 -86.6841
LeftForeArm  -8.11788 -24.1709 0.895725
LeftHand  -0.806102 -4.74127 9.83856
RightShoulder  7.03229 10.1334 33.8662
RightArm  7.25832 -33.0782 21.3349
RightForeArm  28.5683 13.9444 -4.62254
RightHand  -1.81271 7.82353 -15.8327
LeftUpLeg  -15.3373 2.32004 5.4144
LeftLeg  29.9574 17.8599 19.6916
LeftFoot  -4.5197 0.623007 -8.46513
LeftToes  7.37594e-011 2.64622e-011 -6.25182e-011
96
root  -7.06127 38.9406 -3.92912 0.0185596 -6.91847 -4.53486
RightUpLeg  -8.40966 1.28634 9.25837
RightLeg  15.1193 -5.87381 -3.16507
RightFoot  -8.35511 0.0686059 -1.09706
RightToes  1.74624e-010 -3.18055e-015 -2.98177e-016
Spine  1.91266 0.0942292 7.05885
Spine1  4.34627 -3.28637 18.1309
HEad  -8.68661 16.2185 -5.66992
LeftShoulder1  -3.88251e-019 9.70628e-020 -3.87848e-018
LeftArm  -22.954 58.3917 -86.2215
LeftForeArm  -4.77921 -23.983 0.963416
LeftHand  -0.866199 -5.08454 10.2065
RightShoulder  7.03228 10.1144 33.9082
RightArm  3.07512 -33.5098 19.7316
RightForeArm  24.7201 10.5557 -4.75727
RightHand  -1.55485 5.95244 -15.7794
LeftUpLeg  -15.2742 3.31153 5.84133
LeftLeg  28.8453 15.403 17.6821
LeftFoot  -5.20777 0.640944 -9.47649
LeftToes  7.37594e-011 2.64622e-011 -6.25182e-011
97
root  -7.10311 38.9194 -4.00523 -0.00963211 -6.42556 -4.53398
RightUpLeg  -8.62765 1.36184 9.35475
RightLeg  15.3702 -6.40233 -3.44633
RightFoot  -8.3636 0.0711679 -1.15832
RightToes  1.74624e-010 -3.18055e-015 -2.98177e-016
Spine  2.43574 -0.357801 6.21575
Spine1  4.54239 -4.1346 19.8816
HEad  -9.76721 16.4873 -6.57212
LeftShoulder1  -3.88251e-019 9.70628e-020 -3.87848e-018
LeftArm  -23.9467 56.5549 -86.1741
LeftForeArm  -4.90121 -23.945 1.13972
LeftHand  -0.902094 -4.79617 10.9198
RightShoulder  7.09405 10.1423 34.1684
RightArm  0.710746 -33.1385 18.6195
RightForeArm  21.0051 7.60185 -5.50906
RightHand  -1.18418 3.3244 -15.591
LeftUpLeg  -15.4807 4.36968 6.39309
LeftLeg  28.804 11.483 15.6099
LeftFoot  -5.77032 0.596245 -9.53324
LeftToes  7.37594e-011 2.64622e-011 -6.25182e-011
98
root  -7.13201 38.8688 -4.10873 -0.25989 -5.34747 -4.52864
RightUpLeg  -8.90146 1.3257 9.42072
RightLeg  16.0978 -7.36232 -4.0985
RightFoot  -8.53538 0.0632015 -0.989311
RightToes  1.74624e-010 -3.18055e-015 -2.98177e-016
Spine  3.16761 -1.04676 4.96411
Spine1  4.84665 -5.35188 22.1701
HEad  -11.6123 16.8274 -7.26351
LeftShoulder1  -3.88251e-019 9.70628e-020 -3.87848e-018
LeftArm  -25.2057 54.6704 -86.2306
LeftForeArm  -6.90969 -23.6612 0.94819
LeftHand  -0.942417 -4.42214 11.8225
RightShoulder  7.17524 10.2002 34.4616
RightArm  -0.789216 -32.7101 17.4997
RightForeArm  19.6337 5.43976 -6.13906
RightHand  -1.03695 1.88875 -16.2413
LeftUpLeg  -16.1905 4.67988 6.95292
LeftLeg  29.7955 6.84708 13.5436
LeftFoot  -5.94429 0.542061 -8.91598
LeftToes  7.37594e-011 2.64622e-011 -6.25182e-011
99
root  -7.12877 38.7944 -4.19561 -0.564258 -3.87549 -4.55171
RightUpLeg  -9.14601 1.03552 9.36257
RightLeg  16.9683 -8.43347 -4.7464
RightFoot  -8.85669 0.0469553 -0.605961
RightToes  1.74624e-010 -3.18055e-015 -2.98177e-016
Spine  3.62307 -1.86795 3.8777
Spine1  5.38548 -6.72868 24.289
HEad  -13.1971 16.905 -7.39636
LeftShoulder1  -3.88251e-019 9.70628e-020 -3.87848e-018
LeftArm  -26.075 52.8079 -86.1427
LeftForeArm  -8.29667 -23.2274 0.600413
LeftHand  -0.984394 -4.52146 12.2158
RightShoulder  7.22204 10.2506 34.5916
RightArm  -0.74266 -32.9927 15.9695
RightForeArm  19.2171 4.96059 -6.33479
RightHand  -1.07615 1.81024 -17.0401
LeftUpLeg  -17.2692 4.00068 7.47692
LeftLeg  31.7023 2.45593 11.6879
LeftFoot  -6.13641 0.511041 -8.66415
LeftToes  7.37594e-011 2.64622e-011 -6.25182e-011
100
root  -7.08362 38.7236 -4.25516 -0.815486 -2.66644 -4.59184
RightUpLeg  -9.32873 0.656425 9.21535
RightLeg  17.7074 -9.15025 -5.19146
RightFoot  -9.15178 0.0328868 -0.2263
RightToes  1.74624e-010 -3.18055e-015 -2.98177e-016
Spine  3.86191 -2.55807 3.41024
Spine1  6.06635 -7.80036 25.4874
HEad  -13.481 16.619 -6.95866
LeftShoulder1  -3.88251e-019 9.70628e-020 -3.87848e-018
LeftArm  -25.7769 51.2566 -85.9009
LeftForeArm  -7.92448 -23.276 0.761545
LeftHand  -0.981737 -4.95879 11.6679
RightShoulder  7.24382 10.2792 34.6403
RightArm  1.18899 -34.1372 13.5927
RightForeArm  17.7934 6.70112 -5.95474
RightHand  -1.06022 1.75535 -16.9086
LeftUpLeg  -18.3491 3.27528 7.86874
LeftLeg  34.1809 -0.545134 10.5709
LeftFoot  -6.96482 0.460665 -8.94368
LeftToes  7.37594e-011 2.64622e-011 -6.25182e-011
